#N canvas 1144 219 484 621 12;
#X obj 120 117 bonk~;
#X obj 120 147 unpack f f f f;
#X obj 130 545 tgl 15 0 empty empty empty 17 7 0 10 -262144 -1 -1 0
1;
#X msg 120 79 minvel \$1;
#X floatatom 308 53 5 0 0 0 - - -;
#X obj 284 398 tgl 15 0 empty empty empty 17 7 0 10 -262144 -1 -1 0
1;
#X obj 81 456 noise~;
#X obj 24 531 *~;
#X obj 284 457 line~;
#X obj 24 573 dac~;
#X obj 24 456 osc~;
#X obj 22 47 adc~ 1;
#X obj 24 261 route 0;
#X obj 24 289 unpack f f f f;
#X obj 24 421 line~;
#X obj 24 398 pack 0 10;
#X obj 23 233 sigmund~ -npeaks 10 peaks;
#X obj 311 31 hsl 128 15 0 127 0 0 empty empty Input_Thresh -2 -8 0
10 -262144 -1 -1 8600 1;
#X obj 312 134 hsl 128 15 0 127 0 0 empty empty Trig_Thresh -2 -8 0
10 -262144 -1 -1 9400 1;
#X floatatom 309 160 5 0 0 0 - - -;
#X msg 284 426 0.2 \, 0 200;
#X msg 130 571 \; pd dsp \$1, f 18;
#X obj 284 365 > \$1;
#X obj 309 185 s trigt;
#X obj 309 338 r trigt;
#X obj 308 79 s i_tresh;
#X obj 120 50 r i_tresh;
#X obj 310 225 hsl 128 15 0 127 0 0 empty empty Pitch_Slope -2 -8 0
10 -262144 -1 -1 0 1;
#X floatatom 307 251 5 0 0 0 - - -;
#X obj 307 280 s pslope;
#X obj 84 372 r pslope;
#X connect 0 0 1 0;
#X connect 1 1 22 0;
#X connect 2 0 21 0;
#X connect 3 0 0 0;
#X connect 4 0 25 0;
#X connect 5 0 20 0;
#X connect 6 0 7 0;
#X connect 7 0 9 0;
#X connect 7 0 9 1;
#X connect 8 0 7 1;
#X connect 10 0 7 0;
#X connect 11 0 0 0;
#X connect 11 0 16 0;
#X connect 12 0 13 0;
#X connect 13 0 15 0;
#X connect 14 0 10 0;
#X connect 15 0 14 0;
#X connect 16 0 12 0;
#X connect 17 0 4 0;
#X connect 18 0 19 0;
#X connect 19 0 23 0;
#X connect 20 0 8 0;
#X connect 22 0 5 0;
#X connect 24 0 22 1;
#X connect 26 0 3 0;
#X connect 27 0 28 0;
#X connect 28 0 29 0;
#X connect 30 0 15 1;
