#N canvas 1151 258 484 621 12;
#X obj 72 131 bonk~;
#X obj 72 173 unpack f f f f;
#X msg 289 98 \; pd dsp \$1;
#X obj 292 77 tgl 15 0 empty empty empty 17 7 0 10 -262144 -1 -1 0
1;
#X msg 125 85 minvel \$1;
#X floatatom 170 47 5 0 0 0 - - -;
#X obj 284 288 tgl 15 0 empty empty empty 17 7 0 10 -262144 -1 -1 0
1;
#X obj 60 456 noise~;
#X obj 24 500 *~;
#X obj 284 433 line~;
#X obj 24 543 dac~;
#X obj 24 456 osc~;
#X obj 26 76 adc~ 1;
#X obj 284 220 > 80;
#X obj 25 275 route 0;
#X obj 25 303 unpack f f f f;
#X obj 24 421 line~;
#X obj 24 398 pack 0 10;
#X floatatom 155 381 5 0 0 0 - - -;
#X obj 24 247 sigmund~ -npeaks 10 peaks;
#X msg 284 408 0.2 \, 0 50;
#X obj 44 332 PITCH SLOPE ->;
#X obj 174 12 hsl 128 15 0 127 0 0 empty empty empty -2 -8 0 10 -262144
-1 -1 6100 1;
#X obj 158 335 hsl 128 15 0 127 0 0 empty empty empty -2 -8 0 10 -262144
-1 -1 1400 1;
#X obj 52 10 INPUT THRESH ->;
#X obj 179 218 TRG THRESH ->;
#X connect 0 0 1 0;
#X connect 1 1 13 0;
#X connect 3 0 2 0;
#X connect 4 0 0 0;
#X connect 5 0 4 0;
#X connect 6 0 20 0;
#X connect 7 0 8 0;
#X connect 8 0 10 0;
#X connect 8 0 10 1;
#X connect 9 0 8 1;
#X connect 11 0 8 0;
#X connect 12 0 0 0;
#X connect 12 0 19 0;
#X connect 13 0 6 0;
#X connect 14 0 15 0;
#X connect 15 0 17 0;
#X connect 16 0 11 0;
#X connect 17 0 16 0;
#X connect 18 0 17 1;
#X connect 19 0 14 0;
#X connect 20 0 9 0;
#X connect 22 0 5 0;
#X connect 23 0 18 0;
