#N canvas 110 349 357 558 10;
#X floatatom 179 190 5 0 0 0 - - -;
#X obj 86 156 bng 15 250 50 0 empty empty empty 17 7 0 10 -262144 -1
-1;
#X obj 36 51 tgl 30 0 empty empty empty 17 7 0 10 -261682 -1 -1 0 1
;
#X obj 259 280 vsl 15 128 0 1 0 0 empty v1 empty 0 -9 0 10 -204786
-1 -1 0 1;
#X obj 72 462 *~;
#X obj 105 461 *~;
#X obj 86 125 metro 5000;
#X obj 72 434 *~;
#X obj 187 51 vsl 15 128 250 9000 1 0 empty bpm1 empty 0 -9 0 10 -261682
-1 -1 8100 1;
#X msg 21 324 start;
#X obj 96 349 print;
#X obj 61 268 t b b;
#X obj 55 378 readsf~ 2;
#X obj 151 189 int;
#X obj 103 435 *~;
#N canvas 83 168 369 364 faderhelper 0;
#X obj 150 67 bng 15 250 50 0 empty empty empty 17 7 0 10 -262144 -1
-1;
#X floatatom 204 68 5 0 0 0 - - -;
#X obj 162 266 line~;
#X obj 96 234 pack 0 f;
#X obj 177 124 delay;
#X obj 177 158 pack 1 f;
#X obj 212 237 loadbang;
#X msg 177 236 1 0;
#X text 244 67 fade time;
#X text 42 65 fade out then in;
#X obj 150 39 inlet;
#X obj 193 193 outlet;
#X obj 162 300 outlet~;
#X obj 204 40 inlet;
#X obj 70 188 inlet;
#X connect 0 0 3 0;
#X connect 0 0 4 0;
#X connect 1 0 3 1;
#X connect 1 0 4 1;
#X connect 1 0 5 1;
#X connect 2 0 12 0;
#X connect 3 0 2 0;
#X connect 4 0 5 0;
#X connect 5 0 2 0;
#X connect 5 0 11 0;
#X connect 6 0 7 0;
#X connect 7 0 2 0;
#X connect 10 0 0 0;
#X connect 13 0 1 0;
#X connect 14 0 3 0;
#X restore 46 234 pd faderhelper;
#X obj 129 50 hsl 36 30 10 250 0 0 empty fader1 empty -2 -8 0 10 -261682
-1 -1 0 1;
#X text 34 25 BEGIN;
#X text 175 25 GLOBAL;
#X floatatom 127 89 5 0 0 0 - - -;
#X obj 101 89 int;
#X text 132 25 FADE;
#X obj 80 52 bng 30 250 50 0 empty empty empty 17 7 0 10 -261682 -1
-1;
#X text 125 35 IN/OUT;
#X text 76 25 SAMPLE;
#X text 34 35 & END;
#X text 81 35 STOP;
#X text 181 35 RATE;
#X obj 80 493 dac~;
#X obj 88 296 random 10;
#X msg 88 323 open samples/0\$1.wav start;
#X connect 0 0 6 1;
#X connect 1 0 15 1;
#X connect 2 0 6 0;
#X connect 2 0 22 0;
#X connect 3 0 4 1;
#X connect 3 0 5 1;
#X connect 4 0 28 0;
#X connect 5 0 28 1;
#X connect 6 0 1 0;
#X connect 7 0 4 0;
#X connect 8 0 13 0;
#X connect 9 0 12 0;
#X connect 11 0 9 0;
#X connect 11 1 29 0;
#X connect 12 0 7 0;
#X connect 12 1 14 0;
#X connect 13 0 0 0;
#X connect 14 0 5 0;
#X connect 15 0 7 1;
#X connect 15 0 14 1;
#X connect 15 1 11 0;
#X connect 16 0 20 0;
#X connect 19 0 15 2;
#X connect 20 0 19 0;
#X connect 22 0 15 0;
#X connect 29 0 30 0;
#X connect 30 0 10 0;
#X connect 30 0 12 0;
#X coords 0 0 1 1 425 350 0;
